<svg width="1200" height="684" viewBox="0 0 1200 684" fill="none" xmlns="http://www.w3.org/2000/svg">
<g clip-path="url(#clip0_16_25)">
<path opacity="0.8" d="M616.219 643.625C605.812 643.625 595.406 641.25 585.844 636.5L380.625 535.04C358.406 524.02 343.5 501.695 341.813 476.71L325.875 245.86C324.188 220.875 335.813 196.65 356.344 182.59L545.625 53.2C566.156 39.14 592.688 37.335 614.906 48.26L820.125 149.72C842.344 160.74 857.25 183.065 858.938 208.05L874.875 438.9C876.563 463.885 864.938 488.11 844.406 502.17L655.125 631.56C643.5 639.54 629.906 643.625 616.219 643.625ZM584.438 42.275C571.031 42.275 557.625 46.265 546.188 54.055L356.906 183.54C336.75 197.315 325.219 221.16 326.906 245.765L342.844 476.615C344.531 501.22 359.156 523.26 381.094 534.09L586.313 635.55C608.156 646.38 634.313 644.48 654.563 630.705L843.844 501.315C864 487.54 875.531 463.695 873.844 439.09L857.906 208.24C856.219 183.635 841.594 161.595 819.656 150.765L614.438 49.305C604.969 44.555 594.656 42.275 584.438 42.275Z" fill="url(#paint0_linear_16_25)"/>
<path opacity="0.6" d="M647.625 665.76C639.375 665.76 631.125 664.43 623.156 661.58L388.5 579.69C363.094 570.855 344.156 548.72 339 522.025L291.563 275.12C286.406 248.425 295.875 220.685 316.125 202.825L503.531 37.715C523.781 19.855 552.187 14.25 577.594 23.085L812.25 104.975C837.656 113.81 856.594 135.945 861.75 162.64L909.094 409.545C914.25 436.24 904.781 463.98 884.531 481.84L697.219 646.95C683.344 659.205 665.625 665.76 647.625 665.76ZM553.125 20.14C535.406 20.14 517.969 26.505 504.281 38.57L316.875 203.585C296.906 221.16 287.625 248.52 292.688 274.835L340.031 521.74C345.094 548.055 363.75 569.905 388.781 578.645L623.438 660.535C648.469 669.275 676.406 663.765 696.469 646.19L883.781 481.175C903.75 463.6 913.031 436.24 907.969 409.925L860.625 163.02C855.562 136.705 836.906 114.855 811.875 106.115L577.219 24.225C569.344 21.47 561.188 20.14 553.125 20.14Z" fill="url(#paint1_linear_16_25)"/>
<path opacity="0.44" d="M683.625 685.425C678 685.425 672.281 684.855 666.656 683.62L402.75 626.81C374.156 620.635 350.812 599.355 341.812 571.235L258.469 311.22C249.469 283.1 255.937 251.94 275.531 229.995L456.094 26.79C475.594 4.84501 505.5 -5.03499 534.094 1.14001L797.906 57.95C826.5 64.125 849.844 85.405 858.844 113.525L942.187 373.54C951.187 401.66 944.719 432.82 925.125 454.765L744.656 657.97C729 675.64 706.594 685.425 683.625 685.425ZM517.125 0.38001C494.437 0.38001 472.406 10.07 456.938 27.455L276.375 230.66C257.062 252.32 250.687 283.1 259.594 310.84L342.937 570.855C351.844 598.595 374.906 619.59 403.031 625.67L666.938 682.48C695.156 688.56 724.594 678.87 743.812 657.115L924.375 454.1C943.687 432.44 950.062 401.66 941.156 373.92L857.812 113.905C848.906 86.165 825.844 65.17 797.719 59.09L533.813 2.18501C528.281 0.95001 522.656 0.38001 517.125 0.38001Z" fill="url(#paint2_linear_16_25)"/>
<path opacity="0.33" d="M724.219 701.955C721.687 701.955 719.062 701.86 716.531 701.575L424.406 675.64C392.812 672.885 364.875 653.03 351.469 623.865L227.531 354.635C214.125 325.47 217.125 291.08 235.312 264.765L403.5 21.28C421.687 -5.03501 452.625 -19.665 484.219 -16.815L776.344 9.02499C807.937 11.78 835.875 31.635 849.281 60.8L973.219 330.125C986.625 359.29 983.625 393.68 965.438 419.995L797.25 663.48C780.563 687.61 753.094 701.955 724.219 701.955ZM228.469 354.16L352.406 623.485C365.625 652.27 393.281 671.84 424.5 674.595L716.625 700.53C747.844 703.285 778.406 688.845 796.313 662.815L964.5 419.425C982.5 393.395 985.406 359.385 972.188 330.6L848.344 61.275C835.125 32.49 807.469 12.92 776.25 10.165L484.125 -15.77C452.906 -18.525 422.344 -4.085 404.437 21.945L236.156 265.335C218.156 291.365 215.25 325.375 228.469 354.16Z" fill="url(#paint3_linear_16_25)"/>
<path opacity="0.25" d="M450.75 725.61C417.562 725.61 386.344 708.13 368.719 679.535L199.781 405.555C181.5 375.915 180.188 338.39 196.406 307.61L346.031 22.42C362.25 -8.455 393.656 -28.31 428.062 -29.545L746.625 -40.85C781.031 -42.085 813.75 -24.415 832.031 5.225L1000.97 279.205C1019.25 308.845 1020.56 346.37 1004.34 377.15L854.719 662.34C838.5 693.215 807.094 713.07 772.687 714.305L454.125 725.61C453 725.61 451.875 725.61 450.75 725.61ZM746.625 -40.28V-39.71L428.062 -28.405C394.031 -27.17 362.906 -7.50499 346.969 22.99L197.344 308.18C181.313 338.675 182.625 375.82 200.719 405.08L369.656 679.06C387.75 708.32 420.094 725.8 454.125 724.565L772.687 713.26C806.719 712.025 837.844 692.36 853.781 661.865L1003.41 376.675C1019.44 346.18 1018.12 309.035 1000.03 279.775L831.187 5.795C813.094 -23.465 780.75 -40.945 746.719 -39.71L746.625 -40.28Z" fill="url(#paint4_linear_16_25)"/>
<path opacity="0.19" d="M476.344 776.625C444.938 776.625 414.656 762.28 394.5 737.105L176.437 464.36C152.906 434.91 146.625 394.535 160.031 359.195L284.156 31.35C297.562 -4.08499 328.875 -29.735 365.813 -35.72L708 -90.63C744.938 -96.52 782.531 -81.985 806.156 -52.44L1024.31 220.4C1047.84 249.85 1054.22 290.225 1040.72 325.565L916.594 653.315C903.188 688.75 871.875 714.4 834.937 720.385L492.75 775.295C487.219 776.245 481.781 776.625 476.344 776.625ZM724.406 -90.82C719.063 -90.82 713.625 -90.44 708.281 -89.49L366.094 -34.58C329.531 -28.69 298.5 -3.325 285.281 31.73L161.156 359.48C147.844 394.535 154.125 434.435 177.469 463.6L395.531 736.44C418.875 765.605 456.094 780.045 492.656 774.25L834.844 719.34C871.406 713.45 902.438 688.085 915.656 653.03L1039.78 325.28C1053.09 290.225 1046.81 250.325 1023.47 221.16L805.406 -51.775C785.531 -76.665 755.531 -90.82 724.406 -90.82Z" fill="url(#paint5_linear_16_25)"/>
<path opacity="0.14" d="M509.438 828.4C480.188 828.4 451.5 817 429.938 795.91L159 530.765C129.75 502.17 117.656 459.515 127.5 419.52L218.625 49.21C228.469 9.215 258.844 -22.705 297.937 -34.01L660 -139.175C699.094 -150.575 741.562 -139.84 770.813 -111.15L1041.75 153.995C1071 182.59 1083.09 225.245 1073.25 265.24L982.125 635.55C972.281 675.545 941.906 707.465 902.812 718.77L540.75 823.935C530.437 826.88 519.844 828.4 509.438 828.4ZM691.313 -142.5C680.906 -142.5 670.5 -141.075 660.281 -138.13L298.313 -32.87C259.594 -21.66 229.5 9.97499 219.75 49.59L128.625 419.9C118.875 459.515 130.781 501.695 159.844 530.1L430.781 795.245C459.75 823.555 501.844 834.195 540.562 822.985L902.625 717.82C941.344 706.61 971.437 674.975 981.187 635.36L1072.31 265.05C1082.06 225.435 1070.16 183.255 1041.09 154.85L770.156 -110.295C748.687 -131.29 720.281 -142.5 691.313 -142.5Z" fill="url(#paint6_linear_16_25)"/>
<path opacity="0.09" d="M550.594 879.795C523.969 879.795 497.625 871.15 475.781 854.525L148.875 604.865C113.625 577.885 94.9687 533.52 100.406 489.155L150.281 77.425C155.625 32.965 184.312 -5.50999 225 -22.99L601.781 -185.06C642.469 -202.54 689.625 -196.65 724.969 -169.765L1051.87 79.895C1087.12 106.875 1105.78 151.24 1100.34 195.605L1050.47 607.335C1045.12 651.795 1016.44 690.27 975.75 707.75L598.969 869.82C583.406 876.565 567 879.795 550.594 879.795ZM650.156 -193.99C633.937 -193.99 617.625 -190.76 602.25 -184.11L225.375 -22.04C185.062 -4.655 156.656 33.44 151.312 77.52L101.437 489.25C96.0937 533.33 114.469 577.22 149.531 604.01L476.438 853.67C511.406 880.365 558.188 886.16 598.5 868.87L975.281 706.8C1015.59 689.415 1044 651.32 1049.34 607.24L1099.22 195.51C1104.56 151.43 1086.19 107.54 1051.12 80.75L724.312 -168.91C702.656 -185.44 676.5 -193.99 650.156 -193.99Z" fill="url(#paint7_linear_16_25)"/>
<path opacity="0.05" d="M600.375 929.86C577.031 929.86 553.781 923.78 532.969 911.62L147.656 686.185C106.031 661.865 80.25 616.55 80.25 567.815V116.945C80.25 68.305 106.125 22.99 147.656 -1.425L532.969 -226.86C574.594 -251.18 626.25 -251.18 667.781 -226.86L1053.09 -1.425C1094.72 22.895 1120.5 68.21 1120.5 116.945V567.815C1120.5 616.455 1094.63 661.77 1053.09 686.185L667.781 911.62C646.969 923.78 623.719 929.86 600.375 929.86ZM600.375 -243.96C577.219 -243.96 554.156 -237.88 533.531 -225.815L148.125 -0.475006C106.875 23.655 81.2812 68.59 81.2812 116.85V567.72C81.2812 615.98 106.875 660.915 148.125 685.045L533.438 910.48C574.688 934.61 625.969 934.61 667.219 910.48L1052.53 685.045C1093.78 660.915 1119.38 615.98 1119.38 567.72V116.945C1119.38 68.685 1093.78 23.75 1052.53 -0.380005L667.219 -225.815C646.594 -237.975 623.531 -243.96 600.375 -243.96Z" fill="url(#paint8_linear_16_25)"/>
</g>
<defs>
<linearGradient id="paint0_linear_16_25" x1="600.375" y1="41.1901" x2="600.375" y2="643.625" gradientUnits="userSpaceOnUse">
<stop stop-color="#7853C8"/>
<stop offset="1" stop-color="#C171FD" stop-opacity="0"/>
</linearGradient>
<linearGradient id="paint1_linear_16_25" x1="600.328" y1="18.9659" x2="600.328" y2="665.76" gradientUnits="userSpaceOnUse">
<stop stop-color="#7853C8"/>
<stop offset="1" stop-color="#C171FD" stop-opacity="0"/>
</linearGradient>
<linearGradient id="paint2_linear_16_25" x1="600.328" y1="-0.670685" x2="600.328" y2="685.425" gradientUnits="userSpaceOnUse">
<stop stop-color="#7853C8"/>
<stop offset="1" stop-color="#C171FD" stop-opacity="0"/>
</linearGradient>
<linearGradient id="paint3_linear_16_25" x1="600.375" y1="-17.1667" x2="600.375" y2="701.955" gradientUnits="userSpaceOnUse">
<stop stop-color="#7853C8"/>
<stop offset="1" stop-color="#C171FD" stop-opacity="0"/>
</linearGradient>
<linearGradient id="paint4_linear_16_25" x1="600.375" y1="-40.9108" x2="600.375" y2="725.61" gradientUnits="userSpaceOnUse">
<stop stop-color="#7853C8"/>
<stop offset="1" stop-color="#C171FD" stop-opacity="0"/>
</linearGradient>
<linearGradient id="paint5_linear_16_25" x1="600.396" y1="-91.9206" x2="600.396" y2="776.625" gradientUnits="userSpaceOnUse">
<stop stop-color="#7853C8"/>
<stop offset="1" stop-color="#C171FD" stop-opacity="0"/>
</linearGradient>
<linearGradient id="paint6_linear_16_25" x1="600.375" y1="-143.653" x2="600.375" y2="828.4" gradientUnits="userSpaceOnUse">
<stop stop-color="#7853C8"/>
<stop offset="1" stop-color="#C171FD" stop-opacity="0"/>
</linearGradient>
<linearGradient id="paint7_linear_16_25" x1="600.375" y1="-194.994" x2="600.375" y2="879.795" gradientUnits="userSpaceOnUse">
<stop stop-color="#7853C8"/>
<stop offset="1" stop-color="#C171FD" stop-opacity="0"/>
</linearGradient>
<linearGradient id="paint8_linear_16_25" x1="600.375" y1="-245.1" x2="600.375" y2="929.86" gradientUnits="userSpaceOnUse">
<stop stop-color="#7853C8"/>
<stop offset="1" stop-color="#C171FD" stop-opacity="0"/>
</linearGradient>
<clipPath id="clip0_16_25">
<rect width="1200" height="684" fill="white"/>
</clipPath>
</defs>
</svg>
