<?xml version="1.0" encoding="UTF-8" standalone="no"?>
<svg
   id="Layer_1"
   viewBox="0 0 664.15094 147"
   version="1.1"
   width="664.15094"
   height="147"
   xmlns="http://www.w3.org/2000/svg"
   xmlns:svg="http://www.w3.org/2000/svg">
  <defs
     id="defs826">
    <style
       id="style824">.cls-1{fill:#7f47db;stroke-width:0px;}</style>
  </defs>
  <path
     class="cls-1"
     d="m 530.34,14.6145 h -1.49 c -5.1,0 -5.95,3.23 -6.45,6.45 l -17.16,112.47 h 13.42 l 10.7,-81.88 h 0.47 l 10.7,81.88 h 13.42 l -17.16,-112.47 c -0.51,-3.23 -1.36,-6.45 -6.46,-6.45"
     id="path828" />
  <path
     class="cls-1"
     d="m 608.1,64.3945 v -34.83 c -0.17,-8.32 -6.79,-14.95 -15.12,-14.95 h -19.7 c -1.32,0 -2.38,1.07 -2.38,2.38 v 114.15 c 0,1.32 1.07,2.38 2.38,2.38 h 19.7 c 8.33,0 14.95,-6.63 15.12,-14.95 v -34.83 c 0,0 0.12,-5.45 -4.28,-8.42 -0.89,-0.6 -0.89,-1.94 0,-2.53 4.4,-2.97 4.28,-8.42 4.28,-8.42 m -12.23,50.8 c 0,4.59 -3.06,6.29 -6.29,6.29 h -6.62 v -41.79 h 6.62 c 3.23,0 6.29,1.53 6.29,6.79 z m 0,-53.68 c 0,5.44 -3.06,6.96 -6.29,6.96 h -6.62 v -41.62 h 6.62 c 3.23,0 6.29,1.7 6.29,6.12 z"
     id="path830" />
  <path
     class="cls-1"
     d="m 638.83,111.0745 v -1.94 c 0,-2.26 -1.83,-4.09 -4.09,-4.09 h -4.24 c -2.26,0 -4.09,1.83 -4.09,4.09 v 4.24 c 0,0.15 0.03,0.29 0.04,0.43 0,0.18 -0.03,0.35 -0.03,0.54 v 4.59 c 0,8.15 6.63,15.63 14.78,15.8 h 7.65 c 8.49,0 15.29,-7.48 15.29,-15.8 v -12.23 c 0,0 0.51,-7.99 -5.44,-18.86 l -14.61,-27.35 c 0,0 -5.27,-9.17 -5.27,-16.14 v -13.59 c 0,-3.81 3,-6.73 6.65,-6.62 3.53,0.11 6.26,3.18 6.26,6.72 v 15.5 c 0,2.26 1.83,4.09 4.09,4.09 h 4.24 c 2.26,0 4.09,-1.83 4.09,-4.09 v -4.24 c 0,-0.2 -0.03,-0.38 -0.06,-0.57 0.02,-0.25 0.05,-0.49 0.05,-0.77 v -12.23 c -0.17,-8.16 -6.62,-14.78 -14.78,-15.12 h -7.64 c -8.49,0 -15.29,6.8 -15.29,15.12 v 15.12 c 0,0 -0.51,7.98 5.44,18.86 l 14.61,27.52 c 0,0 5.27,9 5.27,15.97 v 11.38 c 0,3.74 -2.89,6.63 -6.45,6.63 -3.56,0 -6.46,-2.89 -6.46,-6.63 v -6.32 z"
     id="path832" />
  <path
     class="cls-1"
     d="M 488.43,121.4745 H 465.2 v -103.12 c 0,-2.04 -1.7,-3.57 -3.74,-3.74 h -5.48 c -1.66,0 -3.01,1.35 -3.01,3.01 v 112.9 c 0,1.66 1.35,3.01 3.01,3.01 h 26.21 c 0.43,0 0.83,-0.03 1.22,-0.07 0.22,0.04 0.44,0.07 0.67,0.07 h 4.35 c 2.23,0 4.03,-1.8 4.03,-4.03 v -4 c 0,-2.22 -1.8,-4.03 -4.03,-4.03"
     id="path834" />
  <path
     class="cls-1"
     d="m 2.42,12.9145 h 18.55 c 9.54,0 17.27,7.73 17.27,17.27 v 86.22 c 0,9.54 -7.73,17.27 -17.27,17.27 H 2.42 c -1.33,0 -2.42,-1.08 -2.42,-2.42 v -115.92 c 0,-1.33 1.08,-2.42 2.42,-2.42 m 23.07,104.46 v -88.17 c 0,-3.43 -2.78,-6.22 -6.22,-6.22 h -4.11 c -1.33,0 -2.42,1.09 -2.42,2.42 v 95.77 c 0,1.33 1.08,2.42 2.42,2.42 h 4.11 c 3.43,0 6.22,-2.78 6.22,-6.22"
     id="path836" />
  <path
     class="cls-1"
     d="m 82.07,22.9945 h -7.91 c -1.33,0 -2.42,1.08 -2.42,2.42 v 40.4 c 0,1.33 1.09,2.42 2.42,2.42 h 7.91 c 1.33,0 2.42,1.08 2.42,2.42 v 5.24 c 0,1.33 -1.09,2.42 -2.42,2.42 h -7.91 c -1.33,0 -2.42,1.08 -2.42,2.42 v 40.46 c 0,1.33 1.09,2.42 2.42,2.42 h 7.91 c 1.33,0 2.42,1.09 2.42,2.42 v 5.24 c 0,1.33 -1.09,2.42 -2.42,2.42 H 61.42 c -1.33,0 -2.42,-1.09 -2.42,-2.42 v -115.92 c 0,-1.33 1.08,-2.42 2.42,-2.42 h 20.65 c 1.33,0 2.42,1.08 2.42,2.42 v 5.24 c 0,1.33 -1.09,2.42 -2.42,2.42"
     id="path838" />
  <path
     class="cls-1"
     d="m 128.3,22.9945 h -7.91 c -1.33,0 -2.42,1.08 -2.42,2.42 v 40.4 c 0,1.33 1.08,2.42 2.42,2.42 h 7.91 c 1.33,0 2.42,1.08 2.42,2.42 v 5.24 c 0,1.33 -1.08,2.42 -2.42,2.42 h -7.91 c -1.33,0 -2.42,1.08 -2.42,2.42 v 40.46 c 0,1.33 1.08,2.42 2.42,2.42 h 7.91 c 1.33,0 2.42,1.09 2.42,2.42 v 5.24 c 0,1.33 -1.08,2.42 -2.42,2.42 h -20.65 c -1.33,0 -2.42,-1.09 -2.42,-2.42 v -115.92 c 0,-1.33 1.09,-2.42 2.42,-2.42 h 20.65 c 1.33,0 2.42,1.08 2.42,2.42 v 5.24 c 0,1.33 -1.08,2.42 -2.42,2.42"
     id="path840" />
  <path
     class="cls-1"
     d="m 172.44,12.9145 c 9.54,0 17.27,7.73 17.27,17.27 v 30.85 c 0,9.54 -7.73,17.27 -17.27,17.27 h -5.81 c -1.33,0 -2.42,1.08 -2.42,2.42 v 50.54 c 0,1.33 -1.08,2.42 -2.42,2.42 h -7.91 c -1.33,0 -2.42,-1.08 -2.42,-2.42 v -115.92 c 0,-1.33 1.09,-2.42 2.42,-2.42 h 18.55 z m 4.52,49.09 v -32.8 c 0,-3.43 -2.78,-6.21 -6.21,-6.21 h -4.12 c -1.33,0 -2.42,1.08 -2.42,2.42 v 40.4 c 0,1.33 1.08,2.42 2.42,2.42 h 4.12 c 3.43,0 6.21,-2.78 6.21,-6.22"
     id="path842" />
  <path
     class="cls-1"
     d="m 243.81,70.0745 c -1.22,2.02 -1.22,4.48 0,6.49 1.59,2.61 2.5,5.68 2.5,8.95 v 30.91 c 0,9.54 -7.73,17.27 -17.27,17.27 h -3.69 c -9.54,0 -17.27,-7.73 -17.27,-17.27 v -20.57 c 0,-1.33 1.08,-2.42 2.42,-2.42 h 7.91 c 1.33,0 2.42,1.08 2.42,2.42 v 21.54 c 0,3.43 2.78,6.22 6.22,6.22 h 0.31 c 3.44,0 6.22,-2.78 6.22,-6.22 v -32.86 c 0,-3.43 -2.78,-6.22 -6.22,-6.22 h -4.11 c -1.33,0 -2.42,-1.08 -2.42,-2.42 v -5.24 c 0,-1.33 1.09,-2.42 2.42,-2.42 h 4.11 c 3.44,0 6.22,-2.78 6.22,-6.22 v -32.8 c 0,-3.43 -2.78,-6.22 -6.22,-6.22 h -0.31 c -3.43,0 -6.22,2.78 -6.22,6.22 v 21.54 c 0,1.33 -1.08,2.42 -2.42,2.42 h -7.91 c -1.33,0 -2.42,-1.08 -2.42,-2.42 v -20.57 c 0,-9.54 7.73,-17.27 17.27,-17.27 h 3.69 c 9.54,0 17.27,7.73 17.27,17.27 v 30.92 c 0,3.28 -0.91,6.34 -2.5,8.95"
     id="path844" />
  <g
     id="g1055"
     transform="translate(290.899)">
    <rect
       width="28.074501"
       height="90.850998"
       x="0"
       y="28.074501"
       rx="5.3617525"
       ry="5.3617525"
       fill="#7f47db"
       id="rect1040" />
    <rect
       width="28.074501"
       height="147"
       x="45.425499"
       y="0"
       rx="5.3617525"
       ry="5.3617525"
       fill="#7f47db"
       id="rect1042" />
    <rect
       width="28.074501"
       height="90.850998"
       x="90.850998"
       y="28.074501"
       rx="5.3617525"
       ry="5.3617525"
       fill="#7f47db"
       id="rect1044" />
  </g>
</svg>
